HIERARCHY
ROOT mixamorig:Hips
{
	OFFSET 0.000000 201.639420 0.000000
	CHANNELS 6 Xposition Yposition Zposition Xrotation Yrotation Zrotation
	JOINT mixamorig:Spine
	{
		OFFSET 0.006200 19.524994 -2.481800
		CHANNELS 3 Xrotation Yrotation Zrotation
		JOINT mixamorig:Spine1
		{
			OFFSET -0.000900 22.835007 -2.825400
			CHANNELS 3 Xrotation Yrotation Zrotation
			JOINT mixamorig:Spine2
			{
				OFFSET -0.020600 26.552490 -3.193300
				CHANNELS 3 Xrotation Yrotation Zrotation
				JOINT mixamorig:Neck
				{
					OFFSET -0.060000 30.701813 1.352200
					CHANNELS 3 Xrotation Yrotation Zrotation
					JOINT mixamorig:Head
					{
						OFFSET -0.087200 22.547607 3.670900
						CHANNELS 3 Xrotation Yrotation Zrotation
						JOINT mixamorig:HeadTop_End
						{
							OFFSET -0.830600 40.355194 7.893500
							CHANNELS 3 Xrotation Yrotation Zrotation
							End Site
							{
								OFFSET 0.000000 30.592346 0.000000
							}
						}
						JOINT mixamorig:RightEye
						{
							OFFSET -6.302100 18.118591 16.197100
							CHANNELS 3 Xrotation Yrotation Zrotation
							End Site
							{
								OFFSET 0.000000 30.592346 0.000000
							}
						}
						JOINT mixamorig:LeftEye
						{
							OFFSET 6.741500 18.382690 16.401899
							CHANNELS 3 Xrotation Yrotation Zrotation
							End Site
							{
								OFFSET 0.000000 30.592346 0.000000
							}
						}
					}
				}
				JOINT mixamorig:LeftShoulder
				{
					OFFSET 11.924900 18.230499 1.425400
					CHANNELS 3 Xrotation Yrotation Zrotation
					JOINT mixamorig:LeftArm
					{
						OFFSET 25.435989 -0.697632 -5.229300
						CHANNELS 3 Xrotation Yrotation Zrotation
						JOINT mixamorig:LeftForeArm
						{
							OFFSET 54.684776 0.000000 0.000000
							CHANNELS 3 Xrotation Yrotation Zrotation
							JOINT mixamorig:LeftHand
							{
								OFFSET 55.098175 0.000000 0.000000
								CHANNELS 3 Xrotation Yrotation Zrotation
								JOINT mixamorig:LeftHandMiddle1
								{
									OFFSET 23.369751 0.000000 0.000000
									CHANNELS 3 Xrotation Yrotation Zrotation
									JOINT mixamorig:LeftHandMiddle2
									{
										OFFSET 6.378677 0.000000 0.000000
										CHANNELS 3 Xrotation Yrotation Zrotation
										JOINT mixamorig:LeftHandMiddle3
										{
											OFFSET 6.148331 0.000000 0.000000
											CHANNELS 3 Xrotation Yrotation Zrotation
											JOINT mixamorig:LeftHandMiddle4
											{
												OFFSET 6.582504 0.000000 0.000000
												CHANNELS 3 Xrotation Yrotation Zrotation
												End Site
												{
													OFFSET -1.168900 6.395691 1.028606
												}
											}
										}
									}
								}
								JOINT mixamorig:LeftHandThumb1
								{
									OFFSET 7.235672 -3.848206 5.434273
									CHANNELS 3 Xrotation Yrotation Zrotation
									JOINT mixamorig:LeftHandThumb2
									{
										OFFSET 6.568451 -3.792297 3.792300
										CHANNELS 3 Xrotation Yrotation Zrotation
										JOINT mixamorig:LeftHandThumb3
										{
											OFFSET 6.063080 -3.500519 3.500518
											CHANNELS 3 Xrotation Yrotation Zrotation
											JOINT mixamorig:LeftHandThumb4
											{
												OFFSET 4.793182 -2.767334 2.767349
												CHANNELS 3 Xrotation Yrotation Zrotation
												End Site
												{
													OFFSET 0.101639 6.054260 1.275483
												}
											}
										}
									}
								}
								JOINT mixamorig:LeftHandIndex1
								{
									OFFSET 23.101074 -0.309540 4.992809
									CHANNELS 3 Xrotation Yrotation Zrotation
									JOINT mixamorig:LeftHandIndex2
									{
										OFFSET 6.226883 0.000000 0.000000
										CHANNELS 3 Xrotation Yrotation Zrotation
										JOINT mixamorig:LeftHandIndex3
										{
											OFFSET 6.094330 0.000000 0.000000
											CHANNELS 3 Xrotation Yrotation Zrotation
											JOINT mixamorig:LeftHandIndex4
											{
												OFFSET 5.482605 0.000000 0.000000
												CHANNELS 3 Xrotation Yrotation Zrotation
												End Site
												{
													OFFSET -1.427902 5.233032 0.797164
												}
											}
										}
									}
								}
								JOINT mixamorig:LeftHandRing1
								{
									OFFSET 22.299240 0.021149 -3.964172
									CHANNELS 3 Xrotation Yrotation Zrotation
									JOINT mixamorig:LeftHandRing2
									{
										OFFSET 6.321869 0.000000 0.000000
										CHANNELS 3 Xrotation Yrotation Zrotation
										JOINT mixamorig:LeftHandRing3
										{
											OFFSET 5.899796 0.000000 0.000000
											CHANNELS 3 Xrotation Yrotation Zrotation
											JOINT mixamorig:LeftHandRing4
											{
												OFFSET 6.517899 0.000000 0.000000
												CHANNELS 3 Xrotation Yrotation Zrotation
												End Site
												{
													OFFSET -1.637299 6.232208 0.980890
												}
											}
										}
									}
								}
								JOINT mixamorig:LeftHandPinky1
								{
									OFFSET 20.463791 -0.302338 -8.562233
									CHANNELS 3 Xrotation Yrotation Zrotation
									JOINT mixamorig:LeftHandPinky2
									{
										OFFSET 6.908646 0.000000 0.000000
										CHANNELS 3 Xrotation Yrotation Zrotation
										JOINT mixamorig:LeftHandPinky3
										{
											OFFSET 4.622849 0.000000 0.000000
											CHANNELS 3 Xrotation Yrotation Zrotation
											JOINT mixamorig:LeftHandPinky4
											{
												OFFSET 5.216080 0.000000 0.000000
												CHANNELS 3 Xrotation Yrotation Zrotation
												End Site
												{
													OFFSET -0.606308 5.116241 0.814926
												}
											}
										}
									}
								}
							}
						}
					}
				}
				JOINT mixamorig:RightShoulder
				{
					OFFSET -12.001300 18.284088 1.348900
					CHANNELS 3 Xrotation Yrotation Zrotation
					JOINT mixamorig:RightArm
					{
						OFFSET -25.308500 -0.751312 -5.164599
						CHANNELS 3 Xrotation Yrotation Zrotation
						JOINT mixamorig:RightForeArm
						{
							OFFSET -54.684429 0.000000 0.000000
							CHANNELS 3 Xrotation Yrotation Zrotation
							JOINT mixamorig:RightHand
							{
								OFFSET -55.150291 0.000000 0.000000
								CHANNELS 3 Xrotation Yrotation Zrotation
								JOINT mixamorig:RightHandMiddle1
								{
									OFFSET -23.317566 0.000000 0.000000
									CHANNELS 3 Xrotation Yrotation Zrotation
									JOINT mixamorig:RightHandMiddle2
									{
										OFFSET -6.378403 0.000000 0.000000
										CHANNELS 3 Xrotation Yrotation Zrotation
										JOINT mixamorig:RightHandMiddle3
										{
											OFFSET -6.148193 0.000000 0.000000
											CHANNELS 3 Xrotation Yrotation Zrotation
											JOINT mixamorig:RightHandMiddle4
											{
												OFFSET -6.583389 0.000000 0.000000
												CHANNELS 3 Xrotation Yrotation Zrotation
												End Site
												{
													OFFSET 1.171692 6.395905 1.029786
												}
											}
										}
									}
								}
								JOINT mixamorig:RightHandThumb1
								{
									OFFSET -7.190521 -3.860474 5.435846
									CHANNELS 3 Xrotation Yrotation Zrotation
									JOINT mixamorig:RightHandThumb2
									{
										OFFSET -6.567429 -3.791718 3.791708
										CHANNELS 3 Xrotation Yrotation Zrotation
										JOINT mixamorig:RightHandThumb3
										{
											OFFSET -6.062469 -3.500153 3.500166
											CHANNELS 3 Xrotation Yrotation Zrotation
											JOINT mixamorig:RightHandThumb4
											{
												OFFSET -4.792618 -2.767029 2.767022
												CHANNELS 3 Xrotation Yrotation Zrotation
												End Site
												{
													OFFSET -0.100327 6.053253 1.276754
												}
											}
										}
									}
								}
								JOINT mixamorig:RightHandIndex1
								{
									OFFSET -23.048981 -0.310791 4.992554
									CHANNELS 3 Xrotation Yrotation Zrotation
									JOINT mixamorig:RightHandIndex2
									{
										OFFSET -6.227539 0.000000 0.000000
										CHANNELS 3 Xrotation Yrotation Zrotation
										JOINT mixamorig:RightHandIndex3
										{
											OFFSET -6.095047 0.000000 0.000000
											CHANNELS 3 Xrotation Yrotation Zrotation
											JOINT mixamorig:RightHandIndex4
											{
												OFFSET -5.484772 0.000000 0.000000
												CHANNELS 3 Xrotation Yrotation Zrotation
												End Site
												{
													OFFSET 1.420593 5.237305 0.797056
												}
											}
										}
									}
								}
								JOINT mixamorig:RightHandRing1
								{
									OFFSET -22.246323 0.020569 -3.963762
									CHANNELS 3 Xrotation Yrotation Zrotation
									JOINT mixamorig:RightHandRing2
									{
										OFFSET -6.322128 0.000000 0.000000
										CHANNELS 3 Xrotation Yrotation Zrotation
										JOINT mixamorig:RightHandRing3
										{
											OFFSET -5.900024 0.000000 0.000000
											CHANNELS 3 Xrotation Yrotation Zrotation
											JOINT mixamorig:RightHandRing4
											{
												OFFSET -6.518356 0.000000 0.000000
												CHANNELS 3 Xrotation Yrotation Zrotation
												End Site
												{
													OFFSET 1.636398 6.232697 0.982186
												}
											}
										}
									}
								}
								JOINT mixamorig:RightHandPinky1
								{
									OFFSET -20.411011 -0.303314 -8.561701
									CHANNELS 3 Xrotation Yrotation Zrotation
									JOINT mixamorig:RightHandPinky2
									{
										OFFSET -6.907349 0.000000 0.000000
										CHANNELS 3 Xrotation Yrotation Zrotation
										JOINT mixamorig:RightHandPinky3
										{
											OFFSET -4.623840 0.000000 0.000000
											CHANNELS 3 Xrotation Yrotation Zrotation
											JOINT mixamorig:RightHandPinky4
											{
												OFFSET -5.218353 0.000000 0.000000
												CHANNELS 3 Xrotation Yrotation Zrotation
												End Site
												{
													OFFSET 0.602097 5.118835 0.816273
												}
											}
										}
									}
								}
							}
						}
					}
				}
			}
		}
	}
	JOINT mixamorig:LeftUpLeg
	{
		OFFSET 18.168400 -13.561905 -0.039000
		CHANNELS 3 Xrotation Yrotation Zrotation
		JOINT mixamorig:LeftLeg
		{
			OFFSET 0.577358 -80.825211 -3.695000
			CHANNELS 3 Xrotation Yrotation Zrotation
			JOINT mixamorig:LeftFoot
			{
				OFFSET -0.577356 -83.370262 -6.520700
				CHANNELS 3 Xrotation Yrotation Zrotation
				JOINT mixamorig:LeftToeBase
				{
					OFFSET 0.750401 -20.798306 25.135401
					CHANNELS 3 Xrotation Yrotation Zrotation
					JOINT mixamorig:LeftToe_End
					{
						OFFSET -0.000500 0.001200 19.917799
						CHANNELS 3 Xrotation Yrotation Zrotation
						End Site
						{
							OFFSET 0.000000 19.917805 0.000000
						}
					}
				}
			}
		}
	}
	JOINT mixamorig:RightUpLeg
	{
		OFFSET -18.162500 -13.585098 -0.041000
		CHANNELS 3 Xrotation Yrotation Zrotation
		JOINT mixamorig:RightLeg
		{
			OFFSET -0.595024 -80.945297 -3.631900
			CHANNELS 3 Xrotation Yrotation Zrotation
			JOINT mixamorig:RightFoot
			{
				OFFSET 0.595024 -83.218193 -6.561200
				CHANNELS 3 Xrotation Yrotation Zrotation
				JOINT mixamorig:RightToeBase
				{
					OFFSET -0.753601 -20.807106 25.115000
					CHANNELS 3 Xrotation Yrotation Zrotation
					JOINT mixamorig:RightToe_End
					{
						OFFSET 0.000299 0.001700 19.918200
						CHANNELS 3 Xrotation Yrotation Zrotation
						End Site
						{
							OFFSET 0.000000 19.918203 0.000000
						}
					}
				}
			}
		}
	}
}
MOTION
Frames: 5
Frame Time: 0.033333
-1.243391 26.526520 7.393921 75.701179 -14.989603 6.661222 0.336438 3.522206 -13.112726 -0.151491 9.251357 -8.379387 0.457839 9.415320 -8.103346 -18.020694 -2.929145 4.877283 -7.519335 -5.688391 12.762770 -0.000001 -0.000000 -0.000000 -0.000001 -0.000000 -0.000000 -0.000001 -0.000000 -0.000000 0.588987 -1.147535 -25.961636 -58.138741 -33.475963 -33.469532 -0.000002 -97.883769 -0.000051 -126.343910 -4.460660 1.174626 -0.241167 3.945774 -37.447765 2.899132 5.054071 -59.657727 4.670434 5.731120 -78.339346 -0.000002 0.000001 -0.000000 24.400062 -27.605179 -4.052390 12.960952 30.616251 3.752217 -5.126163 55.915190 27.876828 -0.000002 -0.000001 -0.000001 -2.843187 -2.499798 -25.627471 2.393085 4.722739 -53.724629 4.716629 5.740408 -78.801566 -0.000000 0.000001 -0.000003 -2.331121 1.746952 -40.841495 2.808641 5.000235 -58.625016 3.990504 5.548333 -71.428841 -0.000001 0.000001 -0.000001 -3.644067 -0.213302 -38.988581 0.502000 2.374639 -23.870222 3.161063 5.197972 -62.588616 -0.000001 -0.000000 0.000001 -1.420757 -4.447986 -18.430574 -58.283056 36.834913 65.173474 -0.000031 116.234424 0.000026 53.791213 -6.387227 4.191380 3.413064 -7.186252 51.650249 6.296830 -4.359597 110.634687 0.248711 -1.503058 18.790265 0.000001 -0.000000 -0.000001 8.377141 -4.904130 11.022005 21.620201 -18.183897 -18.379213 -0.702929 -49.821196 -32.535159 -0.000001 -0.000000 0.000001 -1.101403 1.407142 15.159514 1.422364 -3.352170 45.974116 0.615849 -2.316432 29.773092 0.000001 0.000001 0.000000 -3.349037 -2.600425 57.010561 5.440866 -4.590900 99.698147 1.689396 -3.590689 50.382218 -0.000003 -0.000000 -0.000002 -3.994405 -3.304899 64.593775 4.058842 -4.618651 82.610503 2.315542 -4.026784 59.787221 0.000000 -0.000000 -0.000004 7.700588 19.539208 13.271741 11.843886 1.123417 6.805014 25.460131 -2.601891 -14.350683 -0.320841 0.744955 8.664326 -0.000002 0.000000 -0.000001 -26.847570 -34.134004 -37.973024 53.260268 -1.366401 9.438443 12.946298 1.930525 30.159465 -19.204479 -6.200395 17.164175 -0.000001 0.000003 0.000002 
-1.187040 25.513077 7.876785 76.226441 -14.691559 6.482387 0.043355 3.603248 -12.599378 -0.821533 9.500756 -7.772581 -0.282431 9.664848 -7.477416 -17.674400 -3.142751 4.765215 -6.287497 -5.500435 10.991198 0.000004 0.000000 -0.000000 0.000004 0.000000 -0.000000 0.000004 0.000000 -0.000000 0.650179 -0.984264 -23.792539 -57.778182 -32.869988 -32.884475 0.000651 -97.805816 0.000590 -129.048460 -6.569614 1.347129 -0.287788 3.787033 -36.127517 2.782386 4.984162 -58.323272 4.537493 5.702206 -77.004721 -0.000001 0.000001 0.000001 24.475728 -27.460282 -3.966588 12.960894 30.616207 3.752230 -4.785714 53.600309 26.999084 -0.000002 0.000001 0.000000 -2.799788 -2.607949 -25.033664 2.342206 4.685114 -53.104168 4.617470 5.719971 -77.808169 -0.000000 -0.000001 0.000003 -2.344036 1.522077 -39.538261 2.692175 4.927596 -57.279158 3.862184 5.503751 -70.096285 -0.000002 -0.000001 0.000002 -3.619949 -0.483497 -37.679531 0.446707 2.245609 -22.498343 3.039197 5.133183 -61.235159 -0.000001 0.000000 0.000001 -1.572609 -5.087379 -18.363954 -57.830358 36.181175 65.360587 0.000020 117.129370 -0.000013 52.669655 -6.144653 5.644180 3.210561 -7.054855 50.959741 6.294533 -4.360448 110.604573 0.252961 -1.515485 18.951559 0.000002 0.000000 0.000001 8.203668 -5.346155 10.787896 21.555264 -18.247824 -18.390254 -0.974675 -49.851488 -32.827692 0.000001 0.000000 -0.000003 -1.094762 1.550999 14.683442 1.415928 -3.345962 45.864177 0.610121 -2.306392 29.630874 -0.000000 -0.000000 0.000000 -3.279684 -2.340997 54.799127 5.497806 -4.580839 100.410235 1.627743 -3.538832 49.390495 -0.000001 0.000000 -0.000001 -4.005578 -3.158330 63.620548 4.057634 -4.618502 82.595558 2.290038 -4.011865 59.423342 0.000001 0.000001 -0.000001 7.730387 20.089010 13.440259 11.783633 0.275031 6.493699 22.605530 -2.069953 -13.290696 0.427299 0.671145 8.217583 -0.000001 0.000000 -0.000001 -26.540823 -34.664429 -37.679152 52.636860 -2.824311 9.533203 15.166826 2.701448 29.810050 -15.731983 -3.923810 13.528301 -0.000001 0.000001 0.000002 
-1.004477 24.619492 8.258865 76.967489 -14.105816 5.881441 -0.402188 3.593603 -11.957426 -1.638779 9.613329 -6.766315 -1.183638 9.763220 -6.433353 -17.374879 -3.491029 4.773604 -5.467198 -5.309769 8.942170 -0.000002 0.000000 -0.000000 -0.000002 0.000000 -0.000000 -0.000002 0.000000 -0.000000 0.637703 -1.079704 -19.884556 -57.561488 -29.654526 -33.896600 0.000652 -98.738956 0.000598 -130.056309 -7.510216 2.039578 -0.349559 3.552562 -34.214422 2.616132 4.878066 -56.389543 4.346091 5.654863 -75.070309 0.000001 0.000001 -0.000001 24.611265 -27.198735 -3.812662 12.960857 30.616190 3.752225 -4.351230 49.418959 25.576948 -0.000002 0.000000 0.000002 -2.733681 -2.759579 -24.179315 2.270747 4.630781 -52.224067 4.324743 5.649142 -74.853648 0.000001 0.000000 -0.000003 -2.355664 1.189921 -37.649174 2.526575 4.817557 -55.329624 3.678108 5.433898 -68.165097 -0.000002 -0.000001 -0.000002 -3.572448 -0.894631 -35.708072 0.369198 2.048613 -20.429774 2.858575 5.030214 -59.196088 -0.000001 -0.000000 -0.000000 -1.695099 -5.590634 -18.291556 -57.322404 35.491364 64.950953 -0.000038 118.022636 0.000039 50.744665 -6.923922 6.108402 3.201472 -7.006794 51.992558 6.292002 -4.361408 110.571200 0.257488 -1.528602 19.121972 0.000001 0.000001 -0.000001 8.093917 -5.623088 10.638902 21.501183 -18.301173 -18.399158 -1.148222 -49.870169 -33.014594 0.000000 0.000000 0.000000 -1.147804 1.547697 15.260589 1.340452 -3.271166 44.556486 0.587743 -2.266632 29.070033 -0.000000 -0.000001 0.000002 -3.202233 -2.069960 52.463711 5.534407 -4.573987 100.868876 1.575143 -3.493133 48.532848 -0.000001 -0.000000 -0.000002 -3.999845 -2.948817 62.167549 4.112417 -4.625263 83.275340 2.343948 -4.043142 60.190830 -0.000002 0.000000 -0.000000 7.036381 20.920743 14.200789 12.130181 -2.287683 5.979507 18.238272 -1.234900 -10.555648 1.217259 0.839077 9.197765 0.000000 0.000001 0.000001 -26.314776 -35.547504 -36.963075 52.127532 -4.081625 9.594108 17.892082 3.546279 29.207846 -11.340908 -1.847938 9.163361 0.000001 0.000000 0.000001 
-0.779282 24.591675 8.136993 77.284321 -14.088915 5.495584 -0.431843 3.492845 -11.768094 -1.798534 9.624137 -6.111378 -1.376607 9.766841 -5.733566 -17.372584 -3.685800 4.834411 -5.700017 -5.133625 8.024406 0.000004 -0.000000 -0.000000 0.000004 -0.000000 -0.000000 0.000004 -0.000000 -0.000000 0.592750 -1.318192 -17.262301 -60.181493 -28.772220 -34.270341 0.000404 -99.133994 0.000365 -131.263982 -9.121783 3.845661 -0.384360 3.402876 -33.008689 2.513237 4.808332 -55.170887 4.226293 5.621709 -73.850983 -0.000001 0.000001 0.000001 24.713160 -27.000749 -3.696965 12.960784 30.616132 3.752228 -4.145029 46.253775 24.606173 0.000000 0.000000 0.000002 -2.689894 -2.851325 -23.644710 2.227089 4.596732 -51.681562 4.047921 5.567229 -72.021736 -0.000000 0.000001 -0.000003 -2.357264 0.978300 -36.458003 2.424206 4.745363 -54.101437 3.563326 5.386714 -66.947964 -0.000001 0.000001 -0.000000 -3.532347 -1.163632 -34.419277 0.322351 1.918261 -19.076437 2.742510 4.959450 -57.863170 0.000000 -0.000000 0.000000 -1.718338 -5.639323 -18.398491 -57.824361 32.595845 64.220669 -0.000026 119.583990 0.000039 48.372274 -6.312285 6.985024 3.300695 -7.027339 53.452968 6.287609 -4.363045 110.513485 0.255584 -1.523086 19.050275 0.000001 0.000002 0.000001 7.990234 -5.882724 10.497441 21.440164 -18.361403 -18.409086 -1.313508 -49.887504 -33.192636 0.000001 -0.000001 0.000003 -1.213992 1.601972 15.802493 1.253810 -3.180912 43.016849 0.586982 -2.265268 29.050854 -0.000000 0.000001 -0.000002 -3.140255 -1.917291 51.045924 5.548642 -4.571234 101.047376 1.557414 -3.477418 48.241288 -0.000000 0.000000 -0.000002 -3.976830 -2.789903 61.003766 4.156263 -4.630213 83.818879 2.371883 -4.058982 60.586196 0.000000 -0.000001 -0.000003 6.376905 21.936599 14.470985 13.059662 -5.047561 5.651456 15.520784 -0.688725 -7.491836 -0.401525 0.583270 7.630573 0.000002 0.000000 0.000000 -26.324408 -35.367765 -36.474979 52.681679 -4.237726 9.629045 18.085989 3.609167 29.225252 -9.073802 -1.059284 6.909772 -0.000000 -0.000000 -0.000002 
-0.406237 24.903641 7.721573 77.324906 -14.565918 5.210371 -0.277008 3.390942 -11.704447 -1.650716 9.629519 -5.426608 -1.249277 9.754617 -5.005735 -17.512859 -3.807354 4.853211 -6.440481 -4.809453 7.287148 0.000000 0.000000 0.000000 0.000000 0.000000 0.000000 0.000000 0.000000 0.000000 0.542652 -1.610523 -14.619340 -63.933692 -28.337534 -34.193409 0.000101 -98.590072 0.000105 -132.672122 -10.357135 5.706044 -0.413396 3.260399 -31.856275 2.416321 4.739658 -54.006309 4.112447 5.587642 -72.685616 0.000001 0.000000 -0.000000 24.822941 -26.785881 -3.572173 12.960748 30.616118 3.752208 -4.016290 42.819791 23.629050 0.000004 0.000002 0.000003 -2.645458 -2.933503 -23.136386 2.186463 4.564418 -51.172583 3.716207 5.448955 -68.566917 -0.000001 -0.000000 -0.000001 -2.351564 0.778702 -35.318765 2.327839 4.674339 -52.928003 3.454611 5.339335 -65.784783 -0.000000 -0.000001 -0.000002 -3.483031 -1.420801 -33.162126 0.279639 1.790089 -17.756745 2.631022 4.887878 -56.564048 -0.000002 0.000001 -0.000000 -1.687976 -5.482554 -18.509806 -59.497942 29.205469 63.344827 0.000001 120.490971 0.000005 45.417760 -5.250882 7.687915 3.353880 -7.026497 54.545611 6.287232 -4.363184 110.508533 0.252591 -1.514400 18.937393 0.000001 0.000001 -0.000001 7.892577 -6.125549 10.363507 21.372553 -18.428134 -18.420049 -1.470593 -49.903541 -33.361892 -0.000001 -0.000000 -0.000000 -1.293173 1.746371 16.200720 1.192218 -3.113697 41.895134 0.600019 -2.288545 29.378751 0.000001 0.000002 -0.000002 -3.094725 -1.806896 50.013637 5.566646 -4.567704 101.273332 1.544663 -3.466004 48.030659 -0.000002 -0.000000 0.000002 -3.936862 -2.690648 60.178413 4.185227 -4.633255 84.177519 2.382412 -4.064897 60.734882 -0.000003 -0.000000 -0.000000 6.101737 23.023212 14.348361 14.019602 -6.862084 5.345888 12.918991 -0.341381 -4.651357 -1.910250 0.474632 6.852728 -0.000001 -0.000000 -0.000002 -26.837717 -34.317654 -36.410267 55.173537 -4.806503 9.470309 16.401157 3.074491 29.157705 -4.985755 -0.206034 3.055055 0.000000 -0.000001 -0.000001 
